REM DIRINDEX 1\2,1\3
REM DIRNAME cjc080,folder01,folder02
TITLE ""
FILE "ScrambleS_3Part2_Theme160.mp3" MP3
  TRACK 01 AUDIO
    TITLE "3:cjc080_0840"
    INDEX 01 00:00:00
  TRACK 02 AUDIO
    TITLE "0:"
    INDEX 01 00:01:62
  TRACK 03 AUDIO
    TITLE "2:cjc080_0841"
    INDEX 01 00:03:02
  TRACK 04 AUDIO
    TITLE "0:"
    INDEX 01 00:06:33
